<?xml version="1.0" encoding="UTF-8"?>
<!DOCTYPE svg PUBLIC "-//W3C//DTD SVG 1.1//EN" "http://www.w3.org/Graphics/SVG/1.1/DTD/svg11.dtd">
<!-- Creator: CorelDRAW 2020 (64-Bit) -->
<svg xmlns="http://www.w3.org/2000/svg" xml:space="preserve" width="8.26771in" height="8.26771in" version="1.1" style="shape-rendering:geometricPrecision; text-rendering:geometricPrecision; image-rendering:optimizeQuality; fill-rule:evenodd; clip-rule:evenodd"
viewBox="0 0 7711.8 7711.8"
 xmlns:xlink="http://www.w3.org/1999/xlink"
 xmlns:xodm="http://www.corel.com/coreldraw/odm/2003">
 <defs>
  <style type="text/css">
   <![CDATA[
    .fil0 {fill:#6699FF;fill-rule:nonzero}
   ]]>
  </style>
 </defs>
 <g id="Layer_x0020_1">
  <metadata id="CorelCorpID_0Corel-Layer"/>
  <g id="_370246656">
   <g id="_2965578630832">
    <path class="fil0" d="M3855.9 0c-2129.23,0 -3855.9,1726.67 -3855.9,3855.9 0,2129.23 1726.67,3855.9 3855.9,3855.9 2129.23,0 3855.9,-1726.67 3855.9,-3855.9 0,-2129.23 -1726.67,-3855.9 -3855.9,-3855.9zm-2283.38 4482.84l0 0c-14.05,-14.38 -26.73,-30.29 -37.74,-47.04 -5.08,-7.95 -9.64,-16.25 -13.87,-24.71 -4.57,-9.31 -10.83,-17.77 -14.72,-27.75 -4.06,-10.49 -7.44,-21.32 -9.98,-32.32 0,-8.46 -6.09,-16.92 -7.79,-25.38 -4.06,-19.97 -6.09,-40.44 -6.09,-60.92l0 -1488.42c0,-170.4 138.08,-308.48 308.48,-308.48 170.4,0 308.48,138.08 308.48,308.48l0 742.68 1948 -1946.48c58.21,-61.08 139.1,-95.78 223.36,-95.78 170.4,0 308.48,138.08 308.48,308.48 0,84.61 -34.86,165.66 -96.11,223.87l-1947.16 1948 742.68 0c170.4,0 308.48,138.08 308.48,308.48 0,170.4 -138.08,308.48 -308.48,308.48l-1487.57 0c-20.14,-0.17 -40.44,-2.2 -60.07,-6.26l-26.23 -7.79 -31.64 -9.98c-9.98,-4.57 -19.29,-9.98 -28.6,-15.4 -8.46,-3.89 -16.75,-8.29 -24.71,-13.2 -17.09,-11 -32.83,-24.03 -47.04,-38.58l0 0 -0.17 0zm4657.13 452.65c0,170.4 -138.08,308.48 -308.48,308.48 -170.4,0 -308.48,-138.08 -308.48,-308.48l0 -744.21 -1948 1948c-58.55,71.75 -146.37,113.37 -238.93,113.37 -170.4,0 -308.48,-138.08 -308.48,-308.48 0,-91.88 40.95,-179.03 111.68,-237.58l1947.16 -1951.89 -742.68 0c-170.4,0 -308.48,-138.08 -308.48,-308.48 0,-170.4 138.08,-308.48 308.48,-308.48l1491.46 0c18.78,0.34 37.74,2.03 56.35,5.42l27.08 8.46c9.98,0 20.81,5.42 30.8,9.31 9.82,4.4 19.46,9.47 28.6,15.4 8.63,3.55 16.92,7.95 24.71,13.03 16.58,11 32.15,23.69 46.2,37.74l0 0c14.22,14.22 26.91,30.12 37.74,47.04 4.74,7.44 9.31,15.23 13.03,23.18 5.75,9.47 10.83,19.29 15.4,29.28 4.06,10.32 7.44,20.81 9.98,31.64 0,8.46 5.42,16.92 7.79,26.23 3.89,19.8 6.09,39.94 6.26,60.24l0.84 1490.61 -0 0.17z"/>
   </g>
  </g>
 </g>
</svg>
